<svg width="21" height="30" viewBox="0 0 21 30" fill="none" xmlns="http://www.w3.org/2000/svg">
<g clip-path="url(#clip0_1_222)">
<path d="M20.9593 20.6628H16.6635C17.1537 16.7294 14.0251 13.3679 10.4784 13.3791C6.94552 13.3901 3.84501 16.7451 4.33421 20.6628C2.90338 20.6618 1.47237 20.6609 0.0413471 20.6599C-0.451155 15.0611 3.55694 10.1707 8.75175 9.25883C9.06919 8.51966 9.5436 7.64392 10.2569 6.76044C11.2746 5.49935 12.3767 4.72014 13.1306 4.27231H0.0331777V0H20.9237V4.23478C20.8618 4.246 20.7961 4.25858 20.7268 4.27231C19.5174 4.51354 17.2217 5.16353 15.1325 7.06996C14.2455 7.87916 13.6056 8.72356 13.1481 9.46002C17.8963 10.7472 21.4241 15.3896 20.9593 20.6628Z" fill="#AC79FF"/>
<path d="M13.5593 19.7447L20.8333 26.9789L17.7958 30L10.5217 22.7656L3.24752 30L0.209839 26.9789L7.48397 19.7445L10.5217 16.7236L10.5222 16.7231L13.5599 19.7439L13.5593 19.7447Z" fill="#AC79FF"/>
<path d="M10.5212 16.7224L7.48364 19.7434L7.48419 19.744L10.5218 16.723L10.5212 16.7224Z" fill="#AC79FF"/>
</g>
<defs>
<clipPath id="clip0_1_222">
<rect width="21" height="30" fill="white"/>
</clipPath>
</defs>
</svg>
