<svg width="30" height="30" viewBox="0 0 30 30" fill="none" xmlns="http://www.w3.org/2000/svg">
<g clip-path="url(#clip0_1_227)">
<path d="M10 15C10 16.3261 10.5268 17.5979 11.4645 18.5355C12.4021 19.4732 13.6739 20 15 20C16.3261 20 17.5979 19.4732 18.5355 18.5355C19.4732 17.5979 20 16.3261 20 15C20 13.6739 19.4732 12.4021 18.5355 11.4645C17.5979 10.5268 16.3261 10 15 10C13.6739 10 12.4021 10.5268 11.4645 11.4645C10.5268 12.4021 10 13.6739 10 15Z" stroke="#FFC700" stroke-width="3" stroke-linecap="round" stroke-linejoin="round"/>
<path d="M3.75 15H5M15 3.75V5M25 15H26.25M15 25V26.25M7 7L7.875 7.875M23 7L22.125 7.875M22.125 22.125L23 23M7.875 22.125L7 23" stroke="#FFC700" stroke-width="3" stroke-linecap="round" stroke-linejoin="round"/>
</g>
<defs>
<clipPath id="clip0_1_227">
<rect width="30" height="30" fill="white"/>
</clipPath>
</defs>
</svg>
